<mxfile host="65bd71144e">
    <diagram id="k1MsoYNXg85WH_3n2xUJ" name="Page-1">
        <mxGraphModel dx="684" dy="456" grid="1" gridSize="10" guides="1" tooltips="1" connect="1" arrows="1" fold="1" page="1" pageScale="1" pageWidth="827" pageHeight="1169" math="0" shadow="0">
            <root>
                <mxCell id="0"/>
                <mxCell id="1" parent="0"/>
                <mxCell id="29" value="" style="whiteSpace=wrap;html=1;rotation=15;fillColor=#fff2cc;strokeColor=#d6b656;opacity=60;" parent="1" vertex="1">
                    <mxGeometry x="295.87" y="277.87" width="70" height="70" as="geometry"/>
                </mxCell>
                <mxCell id="26" value="" style="whiteSpace=wrap;html=1;rotation=15;fillColor=#fff2cc;strokeColor=#d6b656;opacity=60;" parent="1" vertex="1">
                    <mxGeometry x="245.87" y="277.87" width="70" height="70" as="geometry"/>
                </mxCell>
                <mxCell id="30" value="" style="whiteSpace=wrap;html=1;rotation=15;fillColor=#fff2cc;strokeColor=#d6b656;opacity=60;" parent="1" vertex="1">
                    <mxGeometry x="279.87" y="337.87" width="70" height="70" as="geometry"/>
                </mxCell>
                <mxCell id="27" value="" style="whiteSpace=wrap;html=1;rotation=15;fillColor=#fff2cc;strokeColor=#d6b656;opacity=60;" parent="1" vertex="1">
                    <mxGeometry x="229.87" y="337.87" width="70" height="70" as="geometry"/>
                </mxCell>
                <mxCell id="25" value="" style="whiteSpace=wrap;html=1;rotation=15;fillColor=#fff2cc;strokeColor=#d6b656;opacity=60;" parent="1" vertex="1">
                    <mxGeometry x="261.87" y="217.87" width="70" height="70" as="geometry"/>
                </mxCell>
                <mxCell id="28" value="" style="whiteSpace=wrap;html=1;rotation=15;fillColor=#fff2cc;strokeColor=#D6B656;opacity=60;" parent="1" vertex="1">
                    <mxGeometry x="311.87" y="217.87" width="70" height="70" as="geometry"/>
                </mxCell>
                <mxCell id="19" value="" style="whiteSpace=wrap;html=1;rotation=15;fillColor=#fff2cc;strokeColor=#d6b656;opacity=60;" parent="1" vertex="1">
                    <mxGeometry x="209.87" y="217.87" width="70" height="70" as="geometry"/>
                </mxCell>
                <mxCell id="20" value="" style="whiteSpace=wrap;html=1;rotation=15;fillColor=#fff2cc;strokeColor=#d6b656;opacity=60;" parent="1" vertex="1">
                    <mxGeometry x="193.87" y="277.87" width="70" height="70" as="geometry"/>
                </mxCell>
                <mxCell id="24" value="" style="whiteSpace=wrap;html=1;rotation=15;fillColor=#fff2cc;strokeColor=#d6b656;opacity=60;" parent="1" vertex="1">
                    <mxGeometry x="177.87" y="337.87" width="70" height="70" as="geometry"/>
                </mxCell>
                <mxCell id="65" value="" style="endArrow=none;html=1;exitX=0;exitY=0;exitDx=0;exitDy=0;entryX=1;entryY=1;entryDx=0;entryDy=0;dashed=1;dashPattern=1 1;" parent="1" source="9" edge="1">
                    <mxGeometry width="50" height="50" relative="1" as="geometry">
                        <mxPoint x="330" y="290" as="sourcePoint"/>
                        <mxPoint x="500.13392950129446" y="328.13392950129435" as="targetPoint"/>
                    </mxGeometry>
                </mxCell>
                <mxCell id="64" value="" style="endArrow=none;html=1;dashed=1;dashPattern=1 1;entryX=1;entryY=0;entryDx=0;entryDy=0;movable=1;resizable=1;rotatable=1;deletable=1;editable=1;locked=0;connectable=1;" parent="1" edge="1">
                    <mxGeometry width="50" height="50" relative="1" as="geometry">
                        <mxPoint x="320" y="280" as="sourcePoint"/>
                        <mxPoint x="500.13392950129423" y="231.00392950129435" as="targetPoint"/>
                    </mxGeometry>
                </mxCell>
                <mxCell id="74" value="" style="shape=image;verticalLabelPosition=bottom;labelBackgroundColor=default;verticalAlign=top;aspect=fixed;imageAspect=0;image=data:image/png,iVBORw0KGgoAAAANSUhEUgAAA9cAAAPWCAYAAADqK2uMAAAAAXNSR0IArs4c6QAAAARnQU1BAACxjwv8YQUAAAAJcEhZcwAADsMAAA7DAcdvqGQAABcNSURBVHhe7dkxkWpRFETRzydBASEZArBBgANsoOBJAGeowASTn2xqR3dqrbAd7Ordfr///gP+lNPpNCdgcc/nc07A4q7X65yAhf2fAwAAAPA74hoAAAAicQ0AAACRuAYAAIBIXAMAAEAkrgEAACAS1wAAABCJawAAAIjENQAAAETiGgAAACJxDQAAAJG4BgAAgEhcAwAAQCSuAQAAIBLXAAAAEIlrAAAAiMQ1AAAAROIaAAAAInENAAAAkbgGAACASFwDAABAJK4BAAAgEtcAAAAQiWsAAACIxDUAAABE4hoAAAAicQ0AAACRuAYAAIBIXAMAAEAkrgEAACAS1wAAABCJawAAAIjENQAAAETiGgAAACJxDQAAAJG4BgAAgEhcAwAAQCSuAQAAIBLXAAAAEIlrAAAAiMQ1AAAAROIaAAAAInENAAAAkbgGAACASFwDAABAJK4BAAAgEtcAAAAQiWsAAACIxDUAAABE4hoAAAAicQ0AAACRuAYAAIBIXAMAAEAkrgEAACAS1wAAABCJawAAAIjENQAAAETiGgAAACJxDQAAAJG4BgAAgEhcAwAAQCSuAQAAIBLXAAAAEIlrAAAAiMQ1AAAAROIaAAAAInENAAAAkbgGAACASFwDAABAJK4BAAAgEtcAAAAQiWsAAACIxDUAAABE4hoAAAAicQ0AAACRuAYAAIBIXAMAAEAkrgEAACAS1wAAABCJawAAAIjENQAAAETiGgAAACJxDQAAAJG4BgAAgEhcAwAAQCSuAQAAIBLXAAAAEIlrAAAAiMQ1AAAAROIaAAAAInENAAAAkbgGAACASFwDAABAJK4BAAAgEtcAAAAQiWsAAACIxDUAAABE4hoAAAAicQ0AAACRuAYAAIBIXAMAAEAkrgEAACAS1wAAABCJawAAAIjENQAAAETiGgAAACJxDQAAAJG4BgAAgEhcAwAAQCSuAQAAIBLXAAAAEIlrAAAAiMQ1AAAAROIaAAAAInENAAAAkbgGAACASFwDAABAJK4BAAAgEtcAAAAQiWsAAACIxDUAAABE4hoAAAAicQ0AAACRuAYAAIBIXAMAAEAkrgEAACAS1wAAABCJawAAAIjENQAAAETiGgAAACJxDQAAAJG4BgAAgEhcAwAAQCSuAQAAIBLXAAAAEIlrAAAAiMQ1AAAAROIaAAAAInENAAAAkbgGAACASFwDAABAJK4BAAAgEtcAAAAQiWsAAACIxDUAAABE4hoAAAAicQ0AAACRuAYAAIBIXAMAAEAkrgEAACAS1wAAABCJawAAAIjENQAAAETiGgAAACJxDQAAAJG4BgAAgEhcAwAAQCSuAQAAIBLXAAAAEIlrAAAAiMQ1AAAAROIaAAAAInENAAAAkbgGAACASFwDAABAJK4BAAAgEtcAAAAQiWsAAACIxDUAAABE4hoAAAAicQ0AAACRuAYAAIBIXAMAAEAkrgEAACAS1wAAABCJawAAAIjENQAAAETiGgAAACJxDQAAAJG4BgAAgEhcAwAAQCSuAQAAIBLXAAAAEIlrAAAAiMQ1AAAAROIaAAAAInENAAAAkbgGAACASFwDAABAJK4BAAAgEtcAAAAQiWsAAACIxDUAAABE4hoAAAAicQ0AAACRuAYAAIBIXAMAAEAkrgEAACAS1wAAABCJawAAAIjENQAAAETiGgAAACJxDQAAAJG4BgAAgEhcAwAAQCSuAQAAIBLXAAAAEIlrAAAAiMQ1AAAAROIaAAAAInENAAAAkbgGAACASFwDAABAJK4BAAAgEtcAAAAQiWsAAACIxDUAAABE4hoAAAAicQ0AAACRuAYAAIBIXAMAAEAkrgEAACAS1wAAABCJawAAAIjENQAAAETiGgAAACJxDQAAAJG4BgAAgEhcAwAAQCSuAQAAIBLXAAAAEIlrAAAAiMQ1AAAAROIaAAAAInENAAAAkbgGAACASFwDAABAJK4BAAAgEtcAAAAQiWsAAACIxDUAAABE4hoAAAAicQ0AAACRuAYAAIBIXAMAAEC0O5/P3zkCa/t8PnMCFvd6veYELO52u80JWJjnGgAAACJxDQAAAJG4BgAAgEhcAwAAQCSuAQAAIBLXAAAAEIlrAAAAiMQ1AAAAROIaAAAAInENAAAAkbgGAACASFwDAABAJK4BAAAgEtcAAAAQiWsAAACIxDUAAABE4hoAAAAicQ0AAACRuAYAAIBIXAMAAEAkrgEAACAS1wAAABCJawAAAIjENQAAAETiGgAAACJxDQAAAJG4BgAAgEhcAwAAQCSuAQAAIBLXAAAAEIlrAAAAiMQ1AAAAROIaAAAAInENAAAAkbgGAACASFwDAABAJK4BAAAgEtcAAAAQiWsAAACIxDUAAABE4hoAAAAicQ0AAACRuAYAAIBIXAMAAEAkrgEAACAS1wAAABCJawAAAIjENQAAAETiGgAAACJxDQAAAJG4BgAAgEhcAwAAQCSuAQAAIBLXAAAAEIlrAAAAiMQ1AAAAROIaAAAAInENAAAAkbgGAACASFwDAABAJK4BAAAgEtcAAAAQiWsAAACIxDUAAABE4hoAAAAicQ0AAACRuAYAAIBIXAMAAEAkrgEAACAS1wAAABCJawAAAIjENQAAAETiGgAAACJxDQAAAJG4BgAAgEhcAwAAQCSuAQAAIBLXAAAAEIlrAAAAiMQ1AAAAROIaAAAAInENAAAAkbgGAACASFwDAABAJK4BAAAgEtcAAAAQiWsAAACIxDUAAABE4hoAAAAicQ0AAACRuAYAAIBIXAMAAEAkrgEAACAS1wAAABCJawAAAIjENQAAAETiGgAAACJxDQAAAJG4BgAAgEhcAwAAQCSuAQAAIBLXAAAAEIlrAAAAiMQ1AAAAROIaAAAAInENAAAAkbgGAACASFwDAABAJK4BAAAgEtcAAAAQiWsAAACIxDUAAABE4hoAAAAicQ0AAACRuAYAAIBIXAMAAEAkrgEAACAS1wAAABCJawAAAIjENQAAAETiGgAAACJxDQAAAJG4BgAAgEhcAwAAQCSuAQAAIBLXAAAAEIlrAAAAiMQ1AAAAROIaAAAAInENAAAAkbgGAACASFwDAABAJK4BAAAgEtcAAAAQiWsAAACIxDUAAABE4hoAAAAicQ0AAACRuAYAAIBIXAMAAEAkrgEAACAS1wAAABCJawAAAIjENQAAAETiGgAAACJxDQAAAJG4BgAAgEhcAwAAQCSuAQAAIBLXAAAAEIlrAAAAiMQ1AAAAROIaAAAAInENAAAAkbgGAACASFwDAABAJK4BAAAgEtcAAAAQiWsAAACIxDUAAABE4hoAAAAicQ0AAACRuAYAAIBIXAMAAEAkrgEAACAS1wAAABCJawAAAIjENQAAAETiGgAAACJxDQAAAJG4BgAAgEhcAwAAQCSuAQAAIBLXAAAAEIlrAAAAiMQ1AAAAROIaAAAAInENAAAAkbgGAACASFwDAABAJK4BAAAgEtcAAAAQiWsAAACIxDUAAABE4hoAAAAicQ0AAACRuAYAAIBIXAMAAEAkrgEAACAS1wAAABCJawAAAIjENQAAAETiGgAAACJxDQAAAJG4BgAAgEhcAwAAQCSuAQAAIBLXAAAAEIlrAAAAiMQ1AAAAROIaAAAAInENAAAAkbgGAACASFwDAABAJK4BAAAgEtcAAAAQiWsAAACIxDUAAABE4hoAAAAicQ0AAACRuAYAAIBIXAMAAEAkrgEAACAS1wAAABCJawAAAIjENQAAAETiGgAAACJxDQAAAJG4BgAAgEhcAwAAQCSuAQAAIBLXAAAAEIlrAAAAiMQ1AAAAROIaAAAAInENAAAAkbgGAACASFwDAABAJK4BAAAgEtcAAAAQiWsAAACIxDUAAABE4hoAAAAicQ0AAACRuAYAAIBIXAMAAEAkrgEAACAS1wAAABCJawAAAIjENQAAAETiGgAAACJxDQAAAJG4BgAAgEhcAwAAQCSuAQAAINo9Ho/vHIG1vd/vOQGL27ZtTsDiLpfLnICFea4BAAAgEtcAAAAQiWsAAACIxDUAAABE4hoAAAAicQ0AAACRuAYAAIBIXAMAAEAkrgEAACAS1wAAABCJawAAAIjENQAAAETiGgAAACJxDQAAAJG4BgAAgEhcAwAAQCSuAQAAIBLXAAAAEIlrAAAAiMQ1AAAAROIaAAAAInENAAAAkbgGAACASFwDAABAJK4BAAAgEtcAAAAQiWsAAACIxDUAAABE4hoAAAAicQ0AAACRuAYAAIBIXAMAAEAkrgEAACAS1wAAABCJawAAAIjENQAAAETiGgAAACJxDQAAAJG4BgAAgEhcAwAAQCSuAQAAIBLXAAAAEIlrAAAAiMQ1AAAAROIaAAAAInENAAAAkbgGAACASFwDAABAJK4BAAAgEtcAAAAQiWsAAACIxDUAAABE4hoAAAAicQ0AAACRuAYAAIBIXAMAAEAkrgEAACAS1wAAABCJawAAAIjENQAAAETiGgAAACJxDQAAAJG4BgAAgEhcAwAAQCSuAQAAIBLXAAAAEIlrAAAAiMQ1AAAAROIaAAAAInENAAAAkbgGAACASFwDAABAJK4BAAAgEtcAAAAQiWsAAACIxDUAAABE4hoAAAAicQ0AAACRuAYAAIBIXAMAAEAkrgEAACAS1wAAABCJawAAAIjENQAAAETiGgAAACJxDQAAAJG4BgAAgEhcAwAAQCSuAQAAIBLXAAAAEIlrAAAAiMQ1AAAAROIaAAAAInENAAAAkbgGAACASFwDAABAJK4BAAAgEtcAAAAQiWsAAACIxDUAAABE4hoAAAAicQ0AAACRuAYAAIBIXAMAAEAkrgEAACAS1wAAABCJawAAAIjENQAAAETiGgAAACJxDQAAAJG4BgAAgEhcAwAAQCSuAQAAIBLXAAAAEIlrAAAAiMQ1AAAAROIaAAAAInENAAAAkbgGAACASFwDAABAJK4BAAAgEtcAAAAQiWsAAACIxDUAAABE4hoAAAAicQ0AAACRuAYAAIBIXAMAAEAkrgEAACAS1wAAABCJawAAAIjENQAAAETiGgAAACJxDQAAAJG4BgAAgEhcAwAAQCSuAQAAIBLXAAAAEIlrAAAAiMQ1AAAAROIaAAAAInENAAAAkbgGAACASFwDAABAJK4BAAAgEtcAAAAQiWsAAACIxDUAAABE4hoAAAAicQ0AAACRuAYAAIBIXAMAAEAkrgEAACAS1wAAABCJawAAAIjENQAAAETiGgAAACJxDQAAAJG4BgAAgEhcAwAAQCSuAQAAIBLXAAAAEIlrAAAAiMQ1AAAAROIaAAAAInENAAAAkbgGAACASFwDAABAJK4BAAAgEtcAAAAQiWsAAACIxDUAAABE4hoAAAAicQ0AAACRuAYAAIBIXAMAAEAkrgEAACAS1wAAABCJawAAAIjENQAAAETiGgAAACJxDQAAAJG4BgAAgEhcAwAAQCSuAQAAIBLXAAAAEIlrAAAAiMQ1AAAAROIaAAAAInENAAAAkbgGAACASFwDAABAJK4BAAAgEtcAAAAQiWsAAACIxDUAAABE4hoAAAAicQ0AAACRuAYAAIBIXAMAAEAkrgEAACAS1wAAABCJawAAAIjENQAAAETiGgAAACJxDQAAAJG4BgAAgEhcAwAAQCSuAQAAIBLXAAAAEIlrAAAAiMQ1AAAAROIaAAAAInENAAAAkbgGAACASFwDAABAJK4BAAAgEtcAAAAQiWsAAACIxDUAAABE4hoAAAAicQ0AAACRuAYAAIBIXAMAAEAkrgEAACAS1wAAABCJawAAAIjENQAAAETiGgAAACJxDQAAAJG4BgAAgEhcAwAAQCSuAQAAIBLXAAAAEIlrAAAAiMQ1AAAAROIaAAAAInENAAAAkbgGAACASFwDAABAJK4BAAAgEtcAAAAQiWsAAACIxDUAAABE4hoAAACi3bZt3zkCa7vf73MCFnc8HucELO5wOMwJWJjnGgAAACJxDQAAAJG4BgAAgEhcAwAAQCSuAQAAIBLXAAAAEIlrAAAAiMQ1AAAAROIaAAAAInENAAAAkbgGAACASFwDAABAJK4BAAAgEtcAAAAQiWsAAACIxDUAAABE4hoAAAAicQ0AAACRuAYAAIBIXAMAAEAkrgEAACAS1wAAABCJawAAAIjENQAAAETiGgAAACJxDQAAAJG4BgAAgEhcAwAAQCSuAQAAIBLXAAAAEIlrAAAAiMQ1AAAAROIaAAAAInENAAAAkbgGAACASFwDAABAJK4BAAAgEtcAAAAQiWsAAACIxDUAAABE4hoAAAAicQ0AAACRuAYAAIBIXAMAAEAkrgEAACAS1wAAABCJawAAAIjENQAAAETiGgAAACJxDQAAAJG4BgAAgEhcAwAAQCSuAQAAIBLXAAAAEIlrAAAAiMQ1AAAAROIaAAAAInENAAAAkbgGAACASFwDAABAJK4BAAAgEtcAAAAQiWsAAACIxDUAAABE4hoAAAAicQ0AAACRuAYAAIBIXAMAAEAkrgEAACAS1wAAABCJawAAAIjENQAAAETiGgAAACJxDQAAAJG4BgAAgEhcAwAAQCSuAQAAIBLXAAAAEIlrAAAAiMQ1AAAAROIaAAAAInENAAAAkbgGAACASFwDAABAJK4BAAAgEtcAAAAQiWsAAACIxDUAAABE4hoAAAAicQ0AAACRuAYAAIBIXAMAAEAkrgEAACAS1wAAABCJawAAAIjENQAAAETiGgAAACJxDQAAAJG4BgAAgEhcAwAAQCSuAQAAIBLXAAAAEIlrAAAAiMQ1AAAAROIaAAAAInENAAAAkbgGAACASFwDAABAJK4BAAAgEtcAAAAQiWsAAACIxDUAAABE4hoAAAAicQ0AAACRuAYAAIBIXAMAAEAkrgEAACAS1wAAABCJawAAAIjENQAAAETiGgAAACJxDQAAAJG4BgAAgEhcAwAAQCSuAQAAIBLXAAAAEIlrAAAAiMQ1AAAAROIaAAAAInENAAAAkbgGAACASFwDAABAJK4BAAAgEtcAAAAQiWsAAACIxDUAAABE4hoAAAAicQ0AAACRuAYAAIBIXAMAAEAkrgEAACAS1wAAABCJawAAAIjENQAAAETiGgAAACJxDQAAAJG4BgAAgEhcAwAAQCSuAQAAIBLXAAAAEIlrAAAAiMQ1AAAAROIaAAAAInENAAAAkbgGAACASFwDAABAJK4BAAAgEtcAAAAQiWsAAACIxDUAAABE4hoAAAAicQ0AAACRuAYAAIBIXAMAAEAkrgEAACAS1wAAABCJawAAAIjENQAAAETiGgAAACJxDQAAAJG4BgAAgEhcAwAAQCSuAQAAIBLXAAAAEIlrAAAAiMQ1AAAAROIaAAAAInENAAAAkbgGAACASFwDAABAJK4BAAAgEtcAAAAQiWsAAACIxDUAAABE4hoAAAAicQ0AAACRuAYAAIBIXAMAAEAkrgEAACAS1wAAABCJawAAAIjENQAAAETiGgAAACJxDQAAAJG4BgAAgEhcAwAAQCSuAQAAIBLXAAAAEIlrAAAAiMQ1AAAAROIaAAAAInENAAAAkbgGAACASFwDAABAJK4BAAAgEtcAAAAQiWsAAACIxDUAAABE4hoAAAAicQ0AAACRuAYAAIBIXAMAAEAkrgEAACAS1wAAABCJawAAAIjENQAAAETiGgAAACJxDQAAAJG4BgAAgEhcAwAAQCSuAQAAIBLXAAAAEIlrAAAAiMQ1AAAAROIaAAAAInENAAAAkbgGAACASFwDAABAJK4BAAAgEtcAAAAQiWsAAACIxDUAAABE4hoAAAAicQ0AAACRuAYAAIBIXAMAAEAkrgEAACAS1wAAABCJawAAAIjENQAAAETiGgAAACJxDQAAAJG4BgAAgOgH7nUdclv5MvEAAAAASUVORK5CYII=;imageBorder=default;dashed=1;dashPattern=1 1;" parent="1" vertex="1">
                    <mxGeometry x="403.0039295012944" y="231.00392950129435" width="99.11" height="99" as="geometry"/>
                </mxCell>
                <mxCell id="63" value="" style="endArrow=none;html=1;exitX=0;exitY=0;exitDx=0;exitDy=0;entryX=0;entryY=1;entryDx=0;entryDy=0;dashed=1;dashPattern=1 1;" parent="1" source="9" edge="1">
                    <mxGeometry width="50" height="50" relative="1" as="geometry">
                        <mxPoint x="330" y="290" as="sourcePoint"/>
                        <mxPoint x="403.00392950129435" y="328.13392950129435" as="targetPoint"/>
                    </mxGeometry>
                </mxCell>
                <mxCell id="62" value="" style="endArrow=none;html=1;entryX=0;entryY=0;entryDx=0;entryDy=0;dashed=1;dashPattern=1 1;" parent="1" edge="1">
                    <mxGeometry width="50" height="50" relative="1" as="geometry">
                        <mxPoint x="320" y="280" as="sourcePoint"/>
                        <mxPoint x="403.00392950129435" y="231.00392950129435" as="targetPoint"/>
                    </mxGeometry>
                </mxCell>
                <mxCell id="2" value="&lt;font style=&quot;font-size: 6px;&quot;&gt;X000_Y000&lt;/font&gt;" style="whiteSpace=wrap;html=1;fillColor=none;fontFamily=Arial;labelBackgroundColor=none;" parent="1" vertex="1">
                    <mxGeometry x="200" y="240" width="40" height="40" as="geometry"/>
                </mxCell>
                <mxCell id="3" value="&lt;span style=&quot;color: rgb(63, 63, 63); font-size: 6px; font-style: normal; font-variant-ligatures: normal; font-variant-caps: normal; font-weight: 400; letter-spacing: normal; orphans: 2; text-align: center; text-indent: 0px; text-transform: none; widows: 2; word-spacing: 0px; -webkit-text-stroke-width: 0px; white-space: normal; text-decoration-thickness: initial; text-decoration-style: initial; text-decoration-color: initial; float: none; display: inline !important;&quot;&gt;X001_Y000&lt;/span&gt;" style="whiteSpace=wrap;html=1;fillColor=none;fontFamily=Arial;labelBackgroundColor=none;" parent="1" vertex="1">
                    <mxGeometry x="240" y="240" width="40" height="40" as="geometry"/>
                </mxCell>
                <mxCell id="4" value="&lt;span style=&quot;color: rgb(63, 63, 63); font-size: 6px; font-style: normal; font-variant-ligatures: normal; font-variant-caps: normal; font-weight: 400; letter-spacing: normal; orphans: 2; text-align: center; text-indent: 0px; text-transform: none; widows: 2; word-spacing: 0px; -webkit-text-stroke-width: 0px; white-space: normal; text-decoration-thickness: initial; text-decoration-style: initial; text-decoration-color: initial; float: none; display: inline !important;&quot;&gt;X002_Y000&lt;/span&gt;" style="whiteSpace=wrap;html=1;fillColor=none;fontFamily=Arial;labelBackgroundColor=none;" parent="1" vertex="1">
                    <mxGeometry x="280" y="240" width="40" height="40" as="geometry"/>
                </mxCell>
                <mxCell id="5" value="&lt;span style=&quot;color: rgb(63, 63, 63); font-size: 6px; font-style: normal; font-variant-ligatures: normal; font-variant-caps: normal; font-weight: 400; letter-spacing: normal; orphans: 2; text-align: center; text-indent: 0px; text-transform: none; widows: 2; word-spacing: 0px; -webkit-text-stroke-width: 0px; white-space: normal; text-decoration-thickness: initial; text-decoration-style: initial; text-decoration-color: initial; float: none; display: inline !important;&quot;&gt;X003_Y000&lt;/span&gt;" style="whiteSpace=wrap;html=1;fillColor=none;fontFamily=Arial;labelBackgroundColor=none;" parent="1" vertex="1">
                    <mxGeometry x="320" y="240" width="40" height="40" as="geometry"/>
                </mxCell>
                <mxCell id="6" value="&lt;span style=&quot;color: rgb(63, 63, 63); font-size: 6px; font-style: normal; font-variant-ligatures: normal; font-variant-caps: normal; font-weight: 400; letter-spacing: normal; orphans: 2; text-align: center; text-indent: 0px; text-transform: none; widows: 2; word-spacing: 0px; -webkit-text-stroke-width: 0px; white-space: normal; text-decoration-thickness: initial; text-decoration-style: initial; text-decoration-color: initial; float: none; display: inline !important;&quot;&gt;X000_Y001&lt;/span&gt;" style="whiteSpace=wrap;html=1;fillColor=none;fontFamily=Arial;labelBackgroundColor=none;" parent="1" vertex="1">
                    <mxGeometry x="200" y="280" width="40" height="40" as="geometry"/>
                </mxCell>
                <mxCell id="7" value="&lt;span style=&quot;color: rgb(63, 63, 63); font-size: 6px; font-style: normal; font-variant-ligatures: normal; font-variant-caps: normal; font-weight: 400; letter-spacing: normal; orphans: 2; text-align: center; text-indent: 0px; text-transform: none; widows: 2; word-spacing: 0px; -webkit-text-stroke-width: 0px; white-space: normal; text-decoration-thickness: initial; text-decoration-style: initial; text-decoration-color: initial; float: none; display: inline !important;&quot;&gt;X001_Y001&lt;/span&gt;" style="whiteSpace=wrap;html=1;fillColor=none;fontStyle=1;fontFamily=Arial;labelBackgroundColor=none;" parent="1" vertex="1">
                    <mxGeometry x="240" y="280" width="40" height="40" as="geometry"/>
                </mxCell>
                <mxCell id="8" value="&lt;span style=&quot;color: rgb(63, 63, 63); font-size: 6px; font-style: normal; font-variant-ligatures: normal; font-variant-caps: normal; font-weight: 400; letter-spacing: normal; orphans: 2; text-align: center; text-indent: 0px; text-transform: none; widows: 2; word-spacing: 0px; -webkit-text-stroke-width: 0px; white-space: normal; text-decoration-thickness: initial; text-decoration-style: initial; text-decoration-color: initial; float: none; display: inline !important;&quot;&gt;X002_Y001&lt;/span&gt;" style="whiteSpace=wrap;html=1;fillColor=none;fontFamily=Arial;labelBackgroundColor=none;" parent="1" vertex="1">
                    <mxGeometry x="280" y="280" width="40" height="40" as="geometry"/>
                </mxCell>
                <mxCell id="9" value="&lt;span style=&quot;color: rgb(63, 63, 63); font-size: 6px; font-style: normal; font-variant-ligatures: normal; font-variant-caps: normal; font-weight: 400; letter-spacing: normal; orphans: 2; text-align: center; text-indent: 0px; text-transform: none; widows: 2; word-spacing: 0px; -webkit-text-stroke-width: 0px; white-space: normal; text-decoration-thickness: initial; text-decoration-style: initial; text-decoration-color: initial; float: none; display: inline !important;&quot;&gt;X003_Y001&lt;/span&gt;" style="whiteSpace=wrap;html=1;fillColor=none;labelBackgroundColor=none;fontFamily=Arial;" parent="1" vertex="1">
                    <mxGeometry x="320" y="280" width="40" height="40" as="geometry"/>
                </mxCell>
                <mxCell id="10" value="&lt;span style=&quot;color: rgb(63, 63, 63); font-size: 6px; font-style: normal; font-variant-ligatures: normal; font-variant-caps: normal; font-weight: 400; letter-spacing: normal; orphans: 2; text-align: center; text-indent: 0px; text-transform: none; widows: 2; word-spacing: 0px; -webkit-text-stroke-width: 0px; white-space: normal; text-decoration-thickness: initial; text-decoration-style: initial; text-decoration-color: initial; float: none; display: inline !important;&quot;&gt;X000_Y002&lt;/span&gt;" style="whiteSpace=wrap;html=1;fillColor=none;labelBackgroundColor=none;fontFamily=Arial;" parent="1" vertex="1">
                    <mxGeometry x="200" y="320" width="40" height="40" as="geometry"/>
                </mxCell>
                <mxCell id="11" value="&lt;span style=&quot;color: rgb(63, 63, 63); font-size: 6px; font-style: normal; font-variant-ligatures: normal; font-variant-caps: normal; font-weight: 400; letter-spacing: normal; orphans: 2; text-align: center; text-indent: 0px; text-transform: none; widows: 2; word-spacing: 0px; -webkit-text-stroke-width: 0px; white-space: normal; text-decoration-thickness: initial; text-decoration-style: initial; text-decoration-color: initial; float: none; display: inline !important;&quot;&gt;X001_Y002&lt;/span&gt;" style="whiteSpace=wrap;html=1;fillColor=none;labelBackgroundColor=none;fontFamily=Arial;" parent="1" vertex="1">
                    <mxGeometry x="240" y="320" width="40" height="40" as="geometry"/>
                </mxCell>
                <mxCell id="12" value="&lt;span style=&quot;color: rgb(63, 63, 63); font-size: 6px; font-style: normal; font-variant-ligatures: normal; font-variant-caps: normal; font-weight: 400; letter-spacing: normal; orphans: 2; text-align: center; text-indent: 0px; text-transform: none; widows: 2; word-spacing: 0px; -webkit-text-stroke-width: 0px; white-space: normal; text-decoration-thickness: initial; text-decoration-style: initial; text-decoration-color: initial; float: none; display: inline !important;&quot;&gt;X002_Y002&lt;/span&gt;" style="whiteSpace=wrap;html=1;fillColor=none;labelBackgroundColor=none;fontFamily=Arial;" parent="1" vertex="1">
                    <mxGeometry x="280" y="320" width="40" height="40" as="geometry"/>
                </mxCell>
                <mxCell id="13" value="&lt;span style=&quot;color: rgb(63, 63, 63); font-size: 6px; font-style: normal; font-variant-ligatures: normal; font-variant-caps: normal; font-weight: 400; letter-spacing: normal; orphans: 2; text-align: center; text-indent: 0px; text-transform: none; widows: 2; word-spacing: 0px; -webkit-text-stroke-width: 0px; white-space: normal; text-decoration-thickness: initial; text-decoration-style: initial; text-decoration-color: initial; float: none; display: inline !important;&quot;&gt;X003_Y002&lt;/span&gt;" style="whiteSpace=wrap;html=1;fillColor=none;labelBackgroundColor=none;fontFamily=Arial;" parent="1" vertex="1">
                    <mxGeometry x="320" y="320" width="40" height="40" as="geometry"/>
                </mxCell>
                <mxCell id="14" value="&lt;span style=&quot;color: rgb(63, 63, 63); font-size: 6px; font-style: normal; font-variant-ligatures: normal; font-variant-caps: normal; font-weight: 400; letter-spacing: normal; orphans: 2; text-align: center; text-indent: 0px; text-transform: none; widows: 2; word-spacing: 0px; -webkit-text-stroke-width: 0px; white-space: normal; text-decoration-thickness: initial; text-decoration-style: initial; text-decoration-color: initial; float: none; display: inline !important;&quot;&gt;X000_Y003&lt;/span&gt;" style="whiteSpace=wrap;html=1;fillColor=none;labelBackgroundColor=none;fontFamily=Arial;" parent="1" vertex="1">
                    <mxGeometry x="200" y="360" width="40" height="40" as="geometry"/>
                </mxCell>
                <mxCell id="15" value="&lt;span style=&quot;color: rgb(63, 63, 63); font-size: 6px; font-style: normal; font-variant-ligatures: normal; font-variant-caps: normal; font-weight: 400; letter-spacing: normal; orphans: 2; text-align: center; text-indent: 0px; text-transform: none; widows: 2; word-spacing: 0px; -webkit-text-stroke-width: 0px; white-space: normal; text-decoration-thickness: initial; text-decoration-style: initial; text-decoration-color: initial; float: none; display: inline !important;&quot;&gt;X001_Y003&lt;/span&gt;" style="whiteSpace=wrap;html=1;fillColor=none;labelBackgroundColor=none;fontFamily=Arial;" parent="1" vertex="1">
                    <mxGeometry x="240" y="360" width="40" height="40" as="geometry"/>
                </mxCell>
                <mxCell id="16" value="&lt;span style=&quot;color: rgb(63, 63, 63); font-size: 6px; font-style: normal; font-variant-ligatures: normal; font-variant-caps: normal; font-weight: 400; letter-spacing: normal; orphans: 2; text-align: center; text-indent: 0px; text-transform: none; widows: 2; word-spacing: 0px; -webkit-text-stroke-width: 0px; white-space: normal; text-decoration-thickness: initial; text-decoration-style: initial; text-decoration-color: initial; float: none; display: inline !important;&quot;&gt;X002_Y003&lt;/span&gt;" style="whiteSpace=wrap;html=1;fillColor=none;labelBackgroundColor=none;fontFamily=Arial;" parent="1" vertex="1">
                    <mxGeometry x="280" y="360" width="40" height="40" as="geometry"/>
                </mxCell>
                <mxCell id="17" value="&lt;span style=&quot;font-size: 6px; font-style: normal; font-variant-ligatures: normal; font-variant-caps: normal; font-weight: 400; letter-spacing: normal; orphans: 2; text-align: center; text-indent: 0px; text-transform: none; widows: 2; word-spacing: 0px; -webkit-text-stroke-width: 0px; white-space: normal; text-decoration-thickness: initial; text-decoration-style: initial; text-decoration-color: initial; float: none; display: inline !important;&quot;&gt;&lt;font style=&quot;color: rgb(255, 0, 0);&quot;&gt;X003_Y003&lt;/font&gt;&lt;/span&gt;" style="whiteSpace=wrap;html=1;fillColor=none;strokeColor=#FF0000;fontFamily=Arial;labelBackgroundColor=none;" parent="1" vertex="1">
                    <mxGeometry x="320" y="360" width="40" height="40" as="geometry"/>
                </mxCell>
                <mxCell id="33" value="" style="rhombus;whiteSpace=wrap;html=1;strokeColor=#0000FF;fillColor=none;" parent="1" vertex="1">
                    <mxGeometry x="195.0039295012944" y="235.00392950129435" width="10" height="10" as="geometry"/>
                </mxCell>
                <mxCell id="37" value="Tile Size" style="text;strokeColor=none;align=center;fillColor=none;html=1;verticalAlign=middle;whiteSpace=wrap;rounded=0;fontFamily=Arial;fontSize=10;fontColor=#FF0000;" parent="1" vertex="1">
                    <mxGeometry x="311" y="403" width="60" height="30" as="geometry"/>
                </mxCell>
                <mxCell id="38" value="Original image scenes&amp;nbsp;" style="text;strokeColor=none;align=center;fillColor=none;html=1;verticalAlign=middle;whiteSpace=wrap;rounded=0;fontFamily=Arial;fontSize=10;fontColor=#D6B656;labelBackgroundColor=default;" parent="1" vertex="1">
                    <mxGeometry x="240" y="180" width="120" height="30" as="geometry"/>
                </mxCell>
                <mxCell id="79" value="X002_Y000" style="text;html=1;align=center;verticalAlign=middle;resizable=0;points=[];autosize=1;strokeColor=none;fillColor=none;fontFamily=Arial;fontSize=6;fontColor=#FFFFFF;" parent="1" vertex="1">
                    <mxGeometry x="403" y="246" width="50" height="20" as="geometry"/>
                </mxCell>
                <mxCell id="80" value="&lt;span style=&quot;color: rgb(0, 0, 0);&quot;&gt;X003_Y000&lt;/span&gt;" style="text;html=1;align=center;verticalAlign=middle;resizable=0;points=[];autosize=1;strokeColor=none;fillColor=none;fontFamily=Arial;fontSize=6;" parent="1" vertex="1">
                    <mxGeometry x="452" y="246" width="50" height="20" as="geometry"/>
                </mxCell>
                <mxCell id="34" value="Grid Origin" style="text;strokeColor=none;align=center;fillColor=none;html=1;verticalAlign=middle;whiteSpace=wrap;rounded=0;fontFamily=Arial;fontSize=10;fontColor=#0000FF;" parent="1" vertex="1">
                    <mxGeometry x="133.87" y="225" width="60" height="30" as="geometry"/>
                </mxCell>
                <mxCell id="35" value="Tile" style="text;strokeColor=none;align=center;fillColor=none;html=1;verticalAlign=middle;whiteSpace=wrap;rounded=0;fontFamily=Arial;fontSize=10;fontColor=#FF0000;" parent="1" vertex="1">
                    <mxGeometry x="343" y="345" width="60" height="30" as="geometry"/>
                </mxCell>
                <mxCell id="36" value="" style="edgeStyle=none;orthogonalLoop=1;jettySize=auto;html=1;startArrow=classic;startFill=1;rounded=0;curved=0;strokeWidth=1;strokeColor=#FF0000;endSize=3;startSize=3;" parent="1" edge="1">
                    <mxGeometry width="80" relative="1" as="geometry">
                        <mxPoint x="320" y="407.33" as="sourcePoint"/>
                        <mxPoint x="360" y="407" as="targetPoint"/>
                        <Array as="points"/>
                    </mxGeometry>
                </mxCell>
                <mxCell id="39" value="Grid &lt;font style=&quot;font-size: 8px;&quot;&gt;&amp;nbsp;&lt;/font&gt;" style="text;strokeColor=none;align=left;fillColor=none;html=1;verticalAlign=middle;whiteSpace=wrap;rounded=0;fontFamily=Arial;fontSize=10;fontColor=#000000;" parent="1" vertex="1">
                    <mxGeometry x="267.0039295012944" y="203.00392950129435" width="36" height="58" as="geometry"/>
                </mxCell>
                <mxCell id="60" value="&lt;font style=&quot;font-size: 45px; color: rgb(0, 0, 0);&quot;&gt;.&lt;/font&gt;" style="text;html=1;align=center;verticalAlign=middle;resizable=0;points=[];autosize=1;strokeColor=none;fillColor=none;fontColor=#000000;" parent="1" vertex="1">
                    <mxGeometry x="299" y="231" width="40" height="70" as="geometry"/>
                </mxCell>
                <mxCell id="72" value="" style="edgeStyle=none;orthogonalLoop=1;jettySize=auto;html=1;endArrow=none;endFill=0;entryX=0.5;entryY=1;entryDx=0;entryDy=0;exitX=0.5;exitY=0;exitDx=0;exitDy=0;" parent="1" edge="1">
                    <mxGeometry width="80" relative="1" as="geometry">
                        <mxPoint x="452.38392950129435" y="231.00392950129435" as="sourcePoint"/>
                        <mxPoint x="452.38392950129435" y="330.00392950129435" as="targetPoint"/>
                        <Array as="points"/>
                    </mxGeometry>
                </mxCell>
                <mxCell id="73" value="" style="edgeStyle=none;orthogonalLoop=1;jettySize=auto;html=1;endArrow=none;endFill=0;entryX=1;entryY=0.5;entryDx=0;entryDy=0;exitX=0;exitY=0.5;exitDx=0;exitDy=0;" parent="1" edge="1">
                    <mxGeometry width="80" relative="1" as="geometry">
                        <mxPoint x="403.00392950129435" y="280.32392950129434" as="sourcePoint"/>
                        <mxPoint x="502.00392950129435" y="280.32392950129434" as="targetPoint"/>
                        <Array as="points"/>
                    </mxGeometry>
                </mxCell>
                <mxCell id="42" value="&lt;div&gt;&lt;font style=&quot;scrollbar-color: rgb(226, 226, 226) rgb(251, 251, 251);&quot;&gt;&lt;font style=&quot;scrollbar-color: rgb(226, 226, 226) rgb(251, 251, 251);&quot; face=&quot;Arial&quot;&gt;&lt;span style=&quot;scrollbar-color: rgb(226, 226, 226) rgb(251, 251, 251); white-space: pre;&quot;&gt;&lt;font style=&quot;color: rgb(0, 0, 0); font-size: 10px;&quot;&gt;geeo functions&lt;/font&gt;&lt;/span&gt;&lt;/font&gt;&lt;/font&gt;&lt;/div&gt;&lt;font style=&quot;color: rgb(63, 63, 63); scrollbar-color: rgb(226, 226, 226) rgb(251, 251, 251); font-family: Arial; font-size: 8px;&quot;&gt;&lt;font style=&quot;color: rgb(63, 63, 63); scrollbar-color: rgb(226, 226, 226) rgb(251, 251, 251);&quot;&gt;&lt;span style=&quot;scrollbar-color: rgb(226, 226, 226) rgb(251, 251, 251); font-family: Menlo, Consolas, &amp;quot;Courier New&amp;quot;, monospace, Menlo, Monaco, &amp;quot;Courier New&amp;quot;, monospace; white-space: pre; color: rgb(121, 94, 38);&quot;&gt;create_glance_tiles&lt;/span&gt;&lt;span style=&quot;scrollbar-color: rgb(226, 226, 226) rgb(251, 251, 251); font-family: Menlo, Consolas, &amp;quot;Courier New&amp;quot;, monospace, Menlo, Monaco, &amp;quot;Courier New&amp;quot;, monospace; white-space: pre; color: rgb(59, 59, 59);&quot;&gt;()&lt;/span&gt;&lt;/font&gt;&lt;/font&gt;&lt;div style=&quot;color: rgb(63, 63, 63); scrollbar-color: rgb(226, 226, 226) rgb(251, 251, 251); font-family: Arial; font-size: 10px;&quot;&gt;&lt;font style=&quot;color: rgb(63, 63, 63); scrollbar-color: rgb(226, 226, 226) rgb(251, 251, 251); font-size: 8px;&quot;&gt;&lt;span style=&quot;scrollbar-color: rgb(226, 226, 226) rgb(251, 251, 251); font-family: Menlo, Consolas, &amp;quot;Courier New&amp;quot;, monospace, Menlo, Monaco, &amp;quot;Courier New&amp;quot;, monospace; white-space: pre; color: rgb(121, 94, 38);&quot;&gt;create_tiles&lt;/span&gt;&lt;span style=&quot;scrollbar-color: rgb(226, 226, 226) rgb(251, 251, 251); font-family: Menlo, Consolas, &amp;quot;Courier New&amp;quot;, monospace, Menlo, Monaco, &amp;quot;Courier New&amp;quot;, monospace; white-space: pre; color: rgb(59, 59, 59);&quot;&gt;()&lt;/span&gt;&lt;/font&gt;&lt;/div&gt;" style="text;strokeColor=none;align=left;fillColor=none;html=1;verticalAlign=middle;whiteSpace=wrap;rounded=0;" parent="1" vertex="1">
                    <mxGeometry x="402.5639295012944" y="367.87392950129436" width="107.44" height="40" as="geometry"/>
                </mxCell>
                <mxCell id="76" value="Aligned pixel grid" style="text;html=1;align=center;verticalAlign=middle;resizable=0;points=[];autosize=1;strokeColor=none;fillColor=none;fontFamily=Arial;fontSize=10;fontStyle=2" parent="1" vertex="1">
                    <mxGeometry x="402.56" y="203" width="100" height="30" as="geometry"/>
                </mxCell>
                <mxCell id="77" value="&lt;span style=&quot;color: rgb(0, 0, 0);&quot;&gt;X003_Y001&lt;/span&gt;" style="text;html=1;align=center;verticalAlign=middle;resizable=0;points=[];autosize=1;strokeColor=none;fillColor=none;fontFamily=Arial;fontSize=6;" parent="1" vertex="1">
                    <mxGeometry x="451" y="296" width="50" height="20" as="geometry"/>
                </mxCell>
                <mxCell id="78" value="X002_Y001" style="text;html=1;align=center;verticalAlign=middle;resizable=0;points=[];autosize=1;strokeColor=none;fillColor=none;fontFamily=Arial;fontSize=6;" parent="1" vertex="1">
                    <mxGeometry x="403" y="296" width="50" height="20" as="geometry"/>
                </mxCell>
            </root>
        </mxGraphModel>
    </diagram>
</mxfile>